<svg width="26" height="26" viewBox="0 0 26 26" fill="none" xmlns="http://www.w3.org/2000/svg">
<path fill-rule="evenodd" clip-rule="evenodd" d="M20.1213 11.636C18.9497 10.4645 17.0503 10.4645 15.8787 11.636L11.636 15.8787C10.4645 17.0502 10.4645 18.9497 11.636 20.1213L15.8787 24.364C17.0503 25.5355 18.9497 25.5355 20.1213 24.364L24.364 20.1213C25.5355 18.9497 25.5355 17.0502 24.364 15.8787L20.1213 11.636ZM18 19C18.5523 19 19 18.5523 19 18C19 17.4477 18.5523 17 18 17C17.4477 17 17 17.4477 17 18C17 18.5523 17.4477 19 18 19Z" fill="#5B6E82"/>
<path fill-rule="evenodd" clip-rule="evenodd" d="M0 3C0 1.34315 1.34315 0 3 0H9C10.6569 0 12 1.34315 12 3V9C12 10.6569 10.6569 12 9 12H3C1.34315 12 0 10.6569 0 9V3ZM5 4C5 4.55228 4.55228 5 4 5C3.44772 5 3 4.55228 3 4C3 3.44772 3.44772 3 4 3C4.55228 3 5 3.44772 5 4ZM4 9C4.55228 9 5 8.55229 5 8C5 7.44772 4.55228 7 4 7C3.44772 7 3 7.44772 3 8C3 8.55229 3.44772 9 4 9ZM9 4C9 4.55228 8.55229 5 8 5C7.44772 5 7 4.55228 7 4C7 3.44772 7.44772 3 8 3C8.55229 3 9 3.44772 9 4ZM8 9C8.55229 9 9 8.55229 9 8C9 7.44772 8.55229 7 8 7C7.44772 7 7 7.44772 7 8C7 8.55229 7.44772 9 8 9Z" fill="#5B6E82"/>
</svg>
