<svg width="20" height="18" viewBox="0 0 20 18" fill="none" xmlns="http://www.w3.org/2000/svg">
<path d="M10 1C14.9706 1 19 5.02944 19 10C19 14.9706 15.4 17.2007 15.4 17.2007L16 18.0007C18.4289 16.1763 20 13.2716 20 10C20 4.47715 15.5228 0 10 0C4.47715 0 0 4.47715 0 10C0 13.2716 1.57111 16.1763 4 18.0007L4.6 17.2007C2.414 15.5587 1 12.9445 1 10C1 5.02944 5.02944 1 10 1Z" fill="#5B6E82"/>
<path d="M10 3C13.866 3 17 6.13401 17 10C17 12.2901 15.9002 14.3234 14.2 15.6005L14.8 16.4006C16.7431 14.9411 18 12.6173 18 10C18 5.58172 14.4183 2 10 2C5.58172 2 2 5.58172 2 10C2 12.6173 3.25689 14.9411 5.2 16.4006L5.8 15.6005C4.09977 14.3234 3 12.2901 3 10C3 6.13401 6.13401 3 10 3Z" fill="#5B6E82"/>
<path d="M10 5C12.7614 5 15 7.23858 15 10C15 11.6358 14.2144 13.0882 13 14.0004L13.6 14.8004C15.0573 13.7058 16 11.963 16 10C16 6.68629 13.3137 4 10 4C6.68629 4 4 6.68629 4 10C4 11.963 4.94266 13.7058 6.4 14.8004L7 14.0004C5.78555 13.0882 5 11.6358 5 10C5 7.23858 7.23858 5 10 5Z" fill="#5B6E82"/>
<path d="M10 7C11.6569 7 13 8.34315 13 10C13 10.9815 12.5287 11.8529 11.8 12.4002L12.4 13.2003C13.3716 12.4705 14 11.3087 14 10C14 7.79086 12.2091 6 10 6C7.79086 6 6 7.79086 6 10C6 11.3087 6.62844 12.4705 7.6 13.2003L8.2 12.4002C7.47133 11.8529 7 10.9815 7 10C7 8.34315 8.34315 7 10 7Z" fill="#5B6E82"/>
<path d="M10 8C8.89543 8 8 8.89543 8 10C8 10.6543 8.31422 11.2353 8.8 11.6001L10 10L11.2 11.6001C11.6858 11.2353 12 10.6543 12 10C12 8.89543 11.1046 8 10 8Z" fill="#5B6E82"/>
</svg>
