<svg width="20" height="20" viewBox="0 0 20 20" fill="none" xmlns="http://www.w3.org/2000/svg">
<path fill-rule="evenodd" clip-rule="evenodd" d="M15.1801 2.41C15.1801 1.08 16.2601 0 17.5901 0C18.9201 0 20.0001 1.08 20.0001 2.41C20.0001 3.74 18.9201 4.82 17.5901 4.82C16.2601 4.82 15.1801 3.74 15.1801 2.41ZM11.33 12.7593L14.22 9.03027L14.18 9.05027C14.34 8.83027 14.37 8.55027 14.26 8.30027C14.151 8.05027 13.91 7.88027 13.651 7.86027C13.38 7.83027 13.111 7.95027 12.95 8.17027L10.531 11.3003L7.76 9.12027C7.59 8.99027 7.39 8.93927 7.19 8.96027C6.991 8.99027 6.811 9.09927 6.69 9.25927L3.731 13.1103L3.67 13.2003C3.5 13.5193 3.58 13.9293 3.88 14.1503C4.02 14.2403 4.17 14.3003 4.34 14.3003C4.571 14.3103 4.79 14.1893 4.93 14.0003L7.44 10.7693L10.29 12.9103L10.38 12.9693C10.7 13.1393 11.1 13.0603 11.33 12.7593ZM13.45 1.78027C13.41 2.03027 13.39 2.28027 13.39 2.53027C13.39 4.78027 15.21 6.59927 17.45 6.59927C17.7 6.59927 17.94 6.57027 18.19 6.53027V14.5993C18.19 17.9903 16.19 20.0003 12.79 20.0003H5.401C2 20.0003 0 17.9903 0 14.5993V7.20027C0 3.80027 2 1.78027 5.401 1.78027H13.45Z" fill="white"/>
</svg>
