<svg width="40" height="40" viewBox="0 0 40 40" fill="none" xmlns="http://www.w3.org/2000/svg">
<g filter="url(#filter0_d_462_4812)">
<path d="M26.465 0H13.535C11.007 0.00260513 8.58325 0.992074 6.79566 2.75128C5.00807 4.5105 4.00265 6.89575 4 9.38365V22.1084C4.00265 24.5963 5.00807 26.9816 6.79566 28.7408C8.58325 30.5 11.007 31.4895 13.535 31.4921H26.465C28.993 31.4895 31.4168 30.5 33.2043 28.7408C34.9919 26.9816 35.9974 24.5963 36 22.1084V9.38365C35.9974 6.89575 34.9919 4.5105 33.2043 2.75128C31.4168 0.992074 28.993 0.00260513 26.465 0ZM32.78 22.1084C32.78 23.7567 32.1147 25.3374 30.9304 26.5029C29.7461 27.6684 28.1398 28.3232 26.465 28.3232H13.535C11.8602 28.3232 10.2539 27.6684 9.06962 26.5029C7.88533 25.3374 7.22 23.7567 7.22 22.1084V9.38365C7.22 7.73539 7.88533 6.15464 9.06962 4.98915C10.2539 3.82366 11.8602 3.16889 13.535 3.16889H26.465C28.1398 3.16889 29.7461 3.82366 30.9304 4.98915C32.1147 6.15464 32.78 7.73539 32.78 9.38365V22.1084Z" fill="#345B82"/>
<path d="M29.225 9.12765C28.4811 9.56118 27.6679 9.86733 26.82 10.033C26.2499 9.43172 25.4938 9.03271 24.6694 8.89807C23.8449 8.76344 22.9984 8.90074 22.2615 9.28861C21.5246 9.67648 20.9386 10.2932 20.5947 11.0427C20.2508 11.7923 20.1683 12.6327 20.36 13.4332C18.8541 13.3583 17.3811 12.9727 16.0365 12.3013C14.6918 11.6299 13.5057 10.6878 12.555 9.53606C12.0703 10.357 11.9215 11.3287 12.1389 12.2537C12.3562 13.1787 12.9233 13.9875 13.725 14.5157C13.1216 14.4885 12.5336 14.3198 12.01 14.0237V14.068C12.01 14.929 12.3127 15.7636 12.8669 16.43C13.421 17.0964 14.1923 17.5536 15.05 17.724C14.7241 17.8114 14.3878 17.8561 14.05 17.8569C13.8099 17.8572 13.5704 17.8341 13.335 17.788C13.5769 18.5289 14.0483 19.1768 14.6831 19.641C15.3179 20.1051 16.0843 20.3622 16.875 20.3762C15.5329 21.4122 13.8757 21.9737 12.17 21.9705C11.8676 21.9708 11.5655 21.9544 11.265 21.9213C12.9952 23.0259 15.0126 23.6154 17.075 23.6189C24.04 23.6189 27.85 17.9405 27.85 13.01V12.518C28.5947 11.9947 29.2368 11.3428 29.745 10.594C29.0538 10.895 28.3206 11.0924 27.57 11.1796C28.3547 10.714 28.9424 9.98541 29.225 9.12765Z" fill="#345B82"/>
</g>
<defs>
<filter id="filter0_d_462_4812" x="0" y="0" width="40" height="39.4922" filterUnits="userSpaceOnUse" color-interpolation-filters="sRGB">
<feFlood flood-opacity="0" result="BackgroundImageFix"/>
<feColorMatrix in="SourceAlpha" type="matrix" values="0 0 0 0 0 0 0 0 0 0 0 0 0 0 0 0 0 0 127 0" result="hardAlpha"/>
<feOffset dy="4"/>
<feGaussianBlur stdDeviation="2"/>
<feComposite in2="hardAlpha" operator="out"/>
<feColorMatrix type="matrix" values="0 0 0 0 0 0 0 0 0 0 0 0 0 0 0 0 0 0 0.25 0"/>
<feBlend mode="normal" in2="BackgroundImageFix" result="effect1_dropShadow_462_4812"/>
<feBlend mode="normal" in="SourceGraphic" in2="effect1_dropShadow_462_4812" result="shape"/>
</filter>
</defs>
</svg>
