<svg width="18" height="15" viewBox="0 0 18 15" fill="none" xmlns="http://www.w3.org/2000/svg">
<path d="M10.5 0.5C14.1979 0.5 17.226 3.36736 17.4824 7H3.51758C3.77396 3.36736 6.80212 0.5 10.5 0.5ZM3.51758 8H17.4824C17.226 11.6326 14.1979 14.5 10.5 14.5C6.80212 14.5 3.77396 11.6326 3.51758 8Z" stroke="#345B82"/>
<path d="M13.5 7.5C13.5 9.51485 13.1179 11.3146 12.5218 12.5919C11.9068 13.9097 11.1568 14.5 10.5 14.5C9.84315 14.5 9.09323 13.9097 8.47822 12.5919C7.88215 11.3146 7.5 9.51485 7.5 7.5C7.5 5.48515 7.88215 3.68543 8.47822 2.40814C9.09323 1.09025 9.84315 0.5 10.5 0.5C11.1568 0.5 11.9068 1.09025 12.5218 2.40814C13.1179 3.68543 13.5 5.48515 13.5 7.5Z" stroke="#345B82"/>
<path d="M10.5 10.5C8.48515 10.5 6.68543 10.1179 5.40814 9.52178C4.09025 8.90677 3.5 8.15685 3.5 7.5C3.5 6.84315 4.09025 6.09323 5.40814 5.47822C6.68543 4.88215 8.48515 4.5 10.5 4.5C12.5149 4.5 14.3146 4.88215 15.5919 5.47822C16.9097 6.09323 17.5 6.84315 17.5 7.5C17.5 8.15685 16.9097 8.90677 15.5919 9.52178C14.3146 10.1179 12.5149 10.5 10.5 10.5Z" stroke="#345B82"/>
<path d="M7.5 0.5C11.1979 0.5 14.226 3.36736 14.4824 7H0.517582C0.773955 3.36736 3.80212 0.5 7.5 0.5ZM0.517582 8H14.4824C14.226 11.6326 11.1979 14.5 7.5 14.5C3.80212 14.5 0.773955 11.6326 0.517582 8Z" stroke="#345B82"/>
</svg>
