<svg width="134" height="24" viewBox="0 0 134 24" fill="none" xmlns="http://www.w3.org/2000/svg">
<path d="M44.702 18V17.082L49.94 11.952C50.42 11.484 50.78 11.076 51.02 10.728C51.26 10.368 51.422 10.032 51.506 9.72C51.59 9.408 51.632 9.114 51.632 8.838C51.632 8.106 51.38 7.53 50.876 7.11C50.384 6.69 49.652 6.48 48.68 6.48C47.936 6.48 47.276 6.594 46.7 6.822C46.136 7.05 45.65 7.404 45.242 7.884L44.324 7.092C44.816 6.516 45.446 6.072 46.214 5.76C46.982 5.448 47.84 5.292 48.788 5.292C49.64 5.292 50.378 5.43 51.002 5.706C51.626 5.97 52.106 6.36 52.442 6.876C52.79 7.392 52.964 7.998 52.964 8.694C52.964 9.102 52.904 9.504 52.784 9.9C52.676 10.296 52.472 10.716 52.172 11.16C51.884 11.592 51.458 12.084 50.894 12.636L46.088 17.352L45.728 16.848H53.54V18H44.702ZM58.9285 18.108C58.0165 18.108 57.1525 17.964 56.3365 17.676C55.5325 17.376 54.8845 16.98 54.3925 16.488L55.0225 15.462C55.4305 15.882 55.9765 16.23 56.6605 16.506C57.3565 16.782 58.1125 16.92 58.9285 16.92C59.9725 16.92 60.7705 16.692 61.3225 16.236C61.8865 15.78 62.1685 15.168 62.1685 14.4C62.1685 13.632 61.8925 13.02 61.3405 12.564C60.8005 12.108 59.9425 11.88 58.7665 11.88H57.8665V10.926L61.7545 6.048L61.9345 6.552H54.9145V5.4H63.0145V6.318L59.1265 11.196L58.4965 10.782H58.9825C60.4945 10.782 61.6225 11.118 62.3665 11.79C63.1225 12.462 63.5005 13.326 63.5005 14.382C63.5005 15.09 63.3325 15.726 62.9965 16.29C62.6605 16.854 62.1505 17.298 61.4665 17.622C60.7945 17.946 59.9485 18.108 58.9285 18.108ZM70.1146 18.108C69.1066 18.108 68.2366 17.964 67.5046 17.676C66.7846 17.388 66.2266 16.974 65.8306 16.434C65.4466 15.882 65.2546 15.234 65.2546 14.49C65.2546 13.77 65.4406 13.158 65.8126 12.654C66.1966 12.138 66.7486 11.742 67.4686 11.466C68.2006 11.19 69.0826 11.052 70.1146 11.052C71.1346 11.052 72.0106 11.19 72.7426 11.466C73.4746 11.742 74.0326 12.138 74.4166 12.654C74.8126 13.158 75.0106 13.77 75.0106 14.49C75.0106 15.234 74.8126 15.882 74.4166 16.434C74.0206 16.974 73.4566 17.388 72.7246 17.676C71.9926 17.964 71.1226 18.108 70.1146 18.108ZM70.1146 17.01C71.2306 17.01 72.1006 16.782 72.7246 16.326C73.3606 15.87 73.6786 15.252 73.6786 14.472C73.6786 13.692 73.3606 13.08 72.7246 12.636C72.1006 12.18 71.2306 11.952 70.1146 11.952C68.9986 11.952 68.1286 12.18 67.5046 12.636C66.8806 13.08 66.5686 13.692 66.5686 14.472C66.5686 15.252 66.8806 15.87 67.5046 16.326C68.1286 16.782 68.9986 17.01 70.1146 17.01ZM70.1146 11.79C69.1786 11.79 68.3806 11.664 67.7206 11.412C67.0726 11.16 66.5746 10.8 66.2266 10.332C65.8786 9.852 65.7046 9.282 65.7046 8.622C65.7046 7.926 65.8846 7.332 66.2446 6.84C66.6166 6.336 67.1326 5.952 67.7926 5.688C68.4526 5.424 69.2266 5.292 70.1146 5.292C71.0026 5.292 71.7766 5.424 72.4366 5.688C73.1086 5.952 73.6306 6.336 74.0026 6.84C74.3746 7.332 74.5606 7.926 74.5606 8.622C74.5606 9.282 74.3866 9.852 74.0386 10.332C73.6906 10.8 73.1806 11.16 72.5086 11.412C71.8486 11.664 71.0506 11.79 70.1146 11.79ZM70.1146 10.926C71.0986 10.926 71.8666 10.722 72.4186 10.314C72.9706 9.906 73.2466 9.36 73.2466 8.676C73.2466 7.956 72.9586 7.398 72.3826 7.002C71.8186 6.594 71.0626 6.39 70.1146 6.39C69.1666 6.39 68.4106 6.594 67.8466 7.002C67.2826 7.398 67.0006 7.95 67.0006 8.658C67.0006 9.354 67.2706 9.906 67.8106 10.314C68.3626 10.722 69.1306 10.926 70.1146 10.926ZM80.7291 5.292C81.8451 5.292 82.7871 5.544 83.5551 6.048C84.3231 6.54 84.9051 7.254 85.3011 8.19C85.6971 9.126 85.8951 10.26 85.8951 11.592C85.8951 13.008 85.6491 14.202 85.1571 15.174C84.6771 16.146 84.0051 16.878 83.1411 17.37C82.2771 17.862 81.2751 18.108 80.1351 18.108C79.5711 18.108 79.0311 18.054 78.5151 17.946C78.0111 17.838 77.5551 17.664 77.1471 17.424L77.6691 16.38C77.9931 16.596 78.3651 16.752 78.7851 16.848C79.2171 16.932 79.6611 16.974 80.1171 16.974C81.4731 16.974 82.5531 16.542 83.3571 15.678C84.1731 14.814 84.5811 13.524 84.5811 11.808C84.5811 11.532 84.5631 11.202 84.5271 10.818C84.5031 10.434 84.4371 10.05 84.3291 9.666L84.7791 10.008C84.6591 10.632 84.4011 11.166 84.0051 11.61C83.6211 12.042 83.1411 12.372 82.5651 12.6C82.0011 12.828 81.3711 12.942 80.6751 12.942C79.8471 12.942 79.1091 12.786 78.4611 12.474C77.8251 12.162 77.3271 11.724 76.9671 11.16C76.6071 10.596 76.4271 9.93 76.4271 9.162C76.4271 8.37 76.6131 7.686 76.9851 7.11C77.3571 6.534 77.8671 6.09 78.5151 5.778C79.1751 5.454 79.9131 5.292 80.7291 5.292ZM80.7831 6.39C80.1831 6.39 79.6491 6.504 79.1811 6.732C78.7251 6.948 78.3651 7.26 78.1011 7.668C77.8371 8.076 77.7051 8.562 77.7051 9.126C77.7051 9.954 77.9871 10.614 78.5511 11.106C79.1271 11.598 79.9011 11.844 80.8731 11.844C81.5211 11.844 82.0851 11.724 82.5651 11.484C83.0571 11.244 83.4351 10.914 83.6991 10.494C83.9751 10.074 84.1131 9.606 84.1131 9.09C84.1131 8.622 83.9871 8.184 83.7351 7.776C83.4831 7.368 83.1111 7.038 82.6191 6.786C82.1271 6.522 81.5151 6.39 80.7831 6.39ZM88.5525 18.09C88.2885 18.09 88.0605 17.994 87.8685 17.802C87.6885 17.61 87.5985 17.376 87.5985 17.1C87.5985 16.812 87.6885 16.578 87.8685 16.398C88.0605 16.218 88.2885 16.128 88.5525 16.128C88.8165 16.128 89.0385 16.218 89.2185 16.398C89.4105 16.578 89.5065 16.812 89.5065 17.1C89.5065 17.376 89.4105 17.61 89.2185 17.802C89.0385 17.994 88.8165 18.09 88.5525 18.09ZM92.367 18.09C92.103 18.09 91.875 17.994 91.683 17.802C91.503 17.61 91.413 17.376 91.413 17.1C91.413 16.812 91.503 16.578 91.683 16.398C91.875 16.218 92.103 16.128 92.367 16.128C92.631 16.128 92.853 16.218 93.033 16.398C93.225 16.578 93.321 16.812 93.321 17.1C93.321 17.376 93.225 17.61 93.033 17.802C92.853 17.994 92.631 18.09 92.367 18.09ZM96.1814 18.09C95.9174 18.09 95.6894 17.994 95.4974 17.802C95.3174 17.61 95.2274 17.376 95.2274 17.1C95.2274 16.812 95.3174 16.578 95.4974 16.398C95.6894 16.218 95.9174 16.128 96.1814 16.128C96.4454 16.128 96.6674 16.218 96.8474 16.398C97.0394 16.578 97.1354 16.812 97.1354 17.1C97.1354 17.376 97.0394 17.61 96.8474 17.802C96.6674 17.994 96.4454 18.09 96.1814 18.09ZM99.9959 18.09C99.7319 18.09 99.5039 17.994 99.3119 17.802C99.1319 17.61 99.0419 17.376 99.0419 17.1C99.0419 16.812 99.1319 16.578 99.3119 16.398C99.5039 16.218 99.7319 16.128 99.9959 16.128C100.26 16.128 100.482 16.218 100.662 16.398C100.854 16.578 100.95 16.812 100.95 17.1C100.95 17.376 100.854 17.61 100.662 17.802C100.482 17.994 100.26 18.09 99.9959 18.09ZM102.78 18V17.082L108.018 11.952C108.498 11.484 108.858 11.076 109.098 10.728C109.338 10.368 109.5 10.032 109.584 9.72C109.668 9.408 109.71 9.114 109.71 8.838C109.71 8.106 109.458 7.53 108.954 7.11C108.462 6.69 107.73 6.48 106.758 6.48C106.014 6.48 105.354 6.594 104.778 6.822C104.214 7.05 103.728 7.404 103.32 7.884L102.402 7.092C102.894 6.516 103.524 6.072 104.292 5.76C105.06 5.448 105.918 5.292 106.866 5.292C107.718 5.292 108.456 5.43 109.08 5.706C109.704 5.97 110.184 6.36 110.52 6.876C110.868 7.392 111.042 7.998 111.042 8.694C111.042 9.102 110.982 9.504 110.862 9.9C110.754 10.296 110.55 10.716 110.25 11.16C109.962 11.592 109.536 12.084 108.972 12.636L104.166 17.352L103.806 16.848H111.618V18H102.78ZM117.169 5.292C118.285 5.292 119.227 5.544 119.995 6.048C120.763 6.54 121.345 7.254 121.741 8.19C122.137 9.126 122.335 10.26 122.335 11.592C122.335 13.008 122.089 14.202 121.597 15.174C121.117 16.146 120.445 16.878 119.581 17.37C118.717 17.862 117.715 18.108 116.575 18.108C116.011 18.108 115.471 18.054 114.955 17.946C114.451 17.838 113.995 17.664 113.587 17.424L114.109 16.38C114.433 16.596 114.805 16.752 115.225 16.848C115.657 16.932 116.101 16.974 116.557 16.974C117.913 16.974 118.993 16.542 119.797 15.678C120.613 14.814 121.021 13.524 121.021 11.808C121.021 11.532 121.003 11.202 120.967 10.818C120.943 10.434 120.877 10.05 120.769 9.666L121.219 10.008C121.099 10.632 120.841 11.166 120.445 11.61C120.061 12.042 119.581 12.372 119.005 12.6C118.441 12.828 117.811 12.942 117.115 12.942C116.287 12.942 115.549 12.786 114.901 12.474C114.265 12.162 113.767 11.724 113.407 11.16C113.047 10.596 112.867 9.93 112.867 9.162C112.867 8.37 113.053 7.686 113.425 7.11C113.797 6.534 114.307 6.09 114.955 5.778C115.615 5.454 116.353 5.292 117.169 5.292ZM117.223 6.39C116.623 6.39 116.089 6.504 115.621 6.732C115.165 6.948 114.805 7.26 114.541 7.668C114.277 8.076 114.145 8.562 114.145 9.126C114.145 9.954 114.427 10.614 114.991 11.106C115.567 11.598 116.341 11.844 117.313 11.844C117.961 11.844 118.525 11.724 119.005 11.484C119.497 11.244 119.875 10.914 120.139 10.494C120.415 10.074 120.553 9.606 120.553 9.09C120.553 8.622 120.427 8.184 120.175 7.776C119.923 7.368 119.551 7.038 119.059 6.786C118.567 6.522 117.955 6.39 117.223 6.39ZM123.979 18V17.082L129.217 11.952C129.697 11.484 130.057 11.076 130.297 10.728C130.537 10.368 130.699 10.032 130.783 9.72C130.867 9.408 130.909 9.114 130.909 8.838C130.909 8.106 130.657 7.53 130.153 7.11C129.661 6.69 128.929 6.48 127.957 6.48C127.213 6.48 126.553 6.594 125.977 6.822C125.413 7.05 124.927 7.404 124.519 7.884L123.601 7.092C124.093 6.516 124.723 6.072 125.491 5.76C126.259 5.448 127.117 5.292 128.065 5.292C128.917 5.292 129.655 5.43 130.279 5.706C130.903 5.97 131.383 6.36 131.719 6.876C132.067 7.392 132.241 7.998 132.241 8.694C132.241 9.102 132.181 9.504 132.061 9.9C131.953 10.296 131.749 10.716 131.449 11.16C131.161 11.592 130.735 12.084 130.171 12.636L125.365 17.352L125.005 16.848H132.817V18H123.979Z" fill="#345B82"/>
<rect x="9" y="9" width="14" height="14" rx="3" fill="#1F354C" stroke="#345B82" stroke-width="2"/>
<rect x="1" y="1" width="14" height="14" rx="3" fill="#1F354C" stroke="#345B82" stroke-width="2"/>
</svg>
